<mxfile host="app.diagrams.net" modified="2021-05-17T02:40:41.440Z" agent="5.0 (Macintosh; Intel Mac OS X 10_15_6) AppleWebKit/605.1.15 (KHTML, like Gecko) Version/13.1.2 Safari/605.1.15" etag="HvtpclquUC7_i5eKzGBh" version="14.6.13" type="github">
  <diagram id="C5RBs43oDa-KdzZeNtuy" name="Page-1">
    <mxGraphModel dx="946" dy="662" grid="1" gridSize="10" guides="1" tooltips="1" connect="1" arrows="1" fold="1" page="1" pageScale="1" pageWidth="827" pageHeight="1169" math="0" shadow="0">
      <root>
        <mxCell id="WIyWlLk6GJQsqaUBKTNV-0" />
        <mxCell id="WIyWlLk6GJQsqaUBKTNV-1" parent="WIyWlLk6GJQsqaUBKTNV-0" />
        <mxCell id="8i6reS_DS949nsTGM3nZ-0" value="&lt;p class=&quot;MsoNormal&quot; style=&quot;margin: 0cm ; font-size: medium ; font-family: &amp;#34;calibri&amp;#34; , sans-serif&quot;&gt;&lt;span lang=&quot;EN-HK&quot;&gt;Self-assessment module&lt;/span&gt;&lt;/p&gt;" style="rounded=0;whiteSpace=wrap;html=1;" vertex="1" parent="WIyWlLk6GJQsqaUBKTNV-1">
          <mxGeometry x="230" y="60" width="250" height="60" as="geometry" />
        </mxCell>
        <mxCell id="8i6reS_DS949nsTGM3nZ-2" style="edgeStyle=orthogonalEdgeStyle;rounded=0;orthogonalLoop=1;jettySize=auto;html=1;entryX=0;entryY=0.5;entryDx=0;entryDy=0;" edge="1" parent="WIyWlLk6GJQsqaUBKTNV-1" source="8i6reS_DS949nsTGM3nZ-1" target="8i6reS_DS949nsTGM3nZ-0">
          <mxGeometry relative="1" as="geometry" />
        </mxCell>
        <mxCell id="8i6reS_DS949nsTGM3nZ-1" value="&lt;p class=&quot;MsoNormal&quot; style=&quot;margin: 0cm ; font-size: medium ; font-family: &amp;#34;calibri&amp;#34; , sans-serif&quot;&gt;&lt;span lang=&quot;EN-HK&quot;&gt;User self-assessment submission sub module&lt;/span&gt;&lt;/p&gt;" style="rounded=0;whiteSpace=wrap;html=1;" vertex="1" parent="WIyWlLk6GJQsqaUBKTNV-1">
          <mxGeometry x="60" y="180" width="190" height="60" as="geometry" />
        </mxCell>
        <mxCell id="8i6reS_DS949nsTGM3nZ-4" style="edgeStyle=orthogonalEdgeStyle;rounded=0;orthogonalLoop=1;jettySize=auto;html=1;entryX=0.5;entryY=1;entryDx=0;entryDy=0;" edge="1" parent="WIyWlLk6GJQsqaUBKTNV-1" source="8i6reS_DS949nsTGM3nZ-3" target="8i6reS_DS949nsTGM3nZ-0">
          <mxGeometry relative="1" as="geometry" />
        </mxCell>
        <mxCell id="8i6reS_DS949nsTGM3nZ-3" value="&lt;p class=&quot;MsoNormal&quot; style=&quot;margin: 0cm ; font-size: medium ; font-family: &amp;#34;calibri&amp;#34; , sans-serif&quot;&gt;&lt;span lang=&quot;EN-HK&quot;&gt;User self-assessment result enquiry sub module&lt;/span&gt;&lt;/p&gt;" style="rounded=0;whiteSpace=wrap;html=1;" vertex="1" parent="WIyWlLk6GJQsqaUBKTNV-1">
          <mxGeometry x="250" y="250" width="210" height="60" as="geometry" />
        </mxCell>
        <mxCell id="8i6reS_DS949nsTGM3nZ-6" style="edgeStyle=orthogonalEdgeStyle;rounded=0;orthogonalLoop=1;jettySize=auto;html=1;entryX=1;entryY=0.5;entryDx=0;entryDy=0;" edge="1" parent="WIyWlLk6GJQsqaUBKTNV-1" source="8i6reS_DS949nsTGM3nZ-5" target="8i6reS_DS949nsTGM3nZ-0">
          <mxGeometry relative="1" as="geometry" />
        </mxCell>
        <mxCell id="8i6reS_DS949nsTGM3nZ-5" value="&lt;p class=&quot;MsoNormal&quot; style=&quot;margin: 0cm ; font-size: medium ; font-family: &amp;#34;calibri&amp;#34; , sans-serif&quot;&gt;&lt;span lang=&quot;EN-HK&quot;&gt;User self-assessment questionnaire enquiry sub module&lt;/span&gt;&lt;/p&gt;" style="rounded=0;whiteSpace=wrap;html=1;" vertex="1" parent="WIyWlLk6GJQsqaUBKTNV-1">
          <mxGeometry x="560" y="180" width="230" height="60" as="geometry" />
        </mxCell>
      </root>
    </mxGraphModel>
  </diagram>
</mxfile>
